HIERARCHY
ROOT Hips
{
	OFFSET	0.00	0.00	0.00
	CHANNELS 6 Xposition Yposition Zposition Zrotation Xrotation Yrotation
	JOINT Spine
	{
		OFFSET	 0.00	0.01	 0.00
		CHANNELS 3 Zrotation Xrotation Yrotation
		JOINT Spine1
		{
			OFFSET	 0.00	 2.45913012437421	 0.00
			CHANNELS 3 Zrotation Xrotation Yrotation
            JOINT Neck
            {
                OFFSET	 0.00	 2.48462964506057	 0.00
                CHANNELS 3 Zrotation Xrotation Yrotation
                JOINT Head
                {
                    OFFSET	 0.00	 0.927524780924562	 0.00
                    CHANNELS 3 Zrotation Xrotation Yrotation
                    End Site 
                    {
                        OFFSET	 0.00	 1.14999962169752	 0.00
                    }
                }
            }
			JOINT LeftShoulder
			{
				OFFSET	 0.00	 2.48462964506057	 0.00
				CHANNELS 3 Zrotation Xrotation Yrotation
				JOINT LeftUpArm
				{
					OFFSET	 0.00	 1.24881979654096	 0.00
					CHANNELS 3 Zrotation Xrotation Yrotation
					JOINT LeftForeArm
					{
						OFFSET	 0.00	2.59758046908119	 0.00
						CHANNELS 3 Zrotation Xrotation Yrotation
						JOINT LeftHand
						{
							OFFSET	 0.00	2.45542024364365	 0.00
							CHANNELS 3 Zrotation Xrotation Yrotation
							JOINT LeftHandThumb 
							{
								OFFSET	 0.00	0.00	 0.00
								CHANNELS 3 Zrotation Xrotation Yrotation
								End Site
								{
									OFFSET	 0.00	0.00	1.00000003353624
								}
							}
							JOINT L_Wrist_End 
							{
								OFFSET	 0.00	0.99999967115358	 0.00
								CHANNELS 3 Zrotation Xrotation Yrotation
								End Site 
								{
									OFFSET	 0.00	 0.00	 0.00
								}
							}
						}
					}
				}
			}
			JOINT RightShoulder
			{
				OFFSET	 0.00	 2.48462964506057	 0.00
				CHANNELS 3 Zrotation Xrotation Yrotation
				JOINT RightUpArm
				{
					OFFSET	 0.00	 1.24881979654096	 0.00
					CHANNELS 3 Zrotation Xrotation Yrotation
					JOINT RightForeArm
					{
						OFFSET	 0.00	2.59758046908119	 0.00
						CHANNELS 3 Zrotation Xrotation Yrotation
						JOINT RightHand
						{
							OFFSET	 0.00	2.45542024364365	 0.00
							CHANNELS 3 Zrotation Xrotation Yrotation
							JOINT RightHandThumb 
							{
								OFFSET	 0.00	0.00	 0.00
								CHANNELS 3 Zrotation Xrotation Yrotation
								End Site
								{
									OFFSET	 0.00	0.00	1.00000003353624
								}
							}
							JOINT R_Wrist_End 
							{
								OFFSET	 0.00	0.99999967115358	 0.00
								CHANNELS 3 Zrotation Xrotation Yrotation
								End Site 
								{
									OFFSET	 0.00	 0.00	 0.00
								}
							}
						}
					}
				}
			}
		}
	}
	JOINT LeftUpLeg
	{
		OFFSET	 1.2719394002717	 0.00	 0.00
		CHANNELS 3 Zrotation Xrotation Yrotation
		JOINT LeftLowLeg
		{
			OFFSET	 0.00	-4.3429100912261	 0.00
			CHANNELS 3 Zrotation Xrotation Yrotation
			JOINT LeftFoot
			{
				OFFSET	 0.00	-4.48767017425826	 0.00
				CHANNELS 3 Zrotation Xrotation Yrotation
				JOINT LeftToeBase
                {
                    OFFSET	 0.00	0.00	 1.51507020887566
                    CHANNELS 3 Zrotation Xrotation Yrotation
                    End Site 
                    {
                        OFFSET	 0.00	0.00	 0.75000010571191
                    }
                }
			}
		}
	}
	JOINT RightUpLeg
	{
		OFFSET	 -1.2719393604653	 0.00	 0.00
		CHANNELS 3 Zrotation Xrotation Yrotation
		JOINT RightLowLeg
		{
			OFFSET	 0.00	-4.3429100912261	 0.00
			CHANNELS 3 Zrotation Xrotation Yrotation
			JOINT RightFoot
			{
				OFFSET	 0.00	-4.48767017425826	 0.00
				CHANNELS 3 Zrotation Xrotation Yrotation
				JOINT RightToeBase
                {
                    OFFSET	 0.00	0.00	 1.51507020887566
                    CHANNELS 3 Zrotation Xrotation Yrotation
                    End Site 
                    {
                        OFFSET	 0.00	0.00	 0.749999965609858
                    }
                }   
			}
		}
	}
}
MOTION 
Frames:	8 
Frame Time: 0.02 
  1.3040699768066406 6.690679931640625 9.790819702148438 -160.461 78.9363 155.486 3.14476 -15.2706 -2.02463 -2.59315 5.36231 -2.69081 20.4032 40.2331 -22.5936 20.2728 -38.3613 37.3959 -104.7882 -6.00772 5.14636 -49.8756 3.31855 35.7441 0.0 20.5322 0.0 10.1886 -11.2816 7.53184 0.0 0.0 0.0 0.0 0.0 0.0 102.3894 -7.01239 3.63579 -11.4873 46.0729 68.6554 0.0 144.245 0.0 -48.8083 18.3863 -6.95844 0.0 0.0 0.0 0.0 0.0 0.0 5.24526 -7.59341 4.67078 0.0 7.09471 0.0 10.7219 4.5659 1.52444 0.0 -32.4859 0.0 7.66148 -9.43898 13.4223 0.0 6.21662 0.0 5.53745 12.51394 -6.02011 0.0 -27.5475 0.0 
  1.3078300476074218 6.67969970703125 9.790609741210938 -160.483 78.9203 155.207 2.98007 -15.3689 -2.0251 -2.39807 5.49829 -2.61608 20.5513 40.0905 -22.7979 20.1492 -38.216 37.5018 -104.6543 -6.40333 5.02198 -50.7599 2.43547 35.0617 0.0 20.7855 0.0 10.7096 -11.5501 6.42948 0.0 0.0 0.0 0.0 0.0 0.0 102.439804 -7.11074 3.66487 -11.4214 45.9789 68.6193 0.0 144.239 0.0 -48.9793 18.2732 -6.73148 0.0 0.0 0.0 0.0 0.0 0.0 5.24755 -7.42976 4.83006 0.0 7.02419 0.0 10.7218 4.5069 1.66772 0.0 -32.4569 0.0 7.69266 -9.4031 13.6752 0.0 6.22761 0.0 5.47795 12.53831 -6.03017 0.0 -27.577 0.0 
  1.3128999328613282 6.673099975585938 9.790540161132812 -160.568 78.8683 155.083 2.79564 -15.3878 -2.05269 -2.14395 5.46529 -2.5647 20.8478 40.1165 -23.1342 19.9993 -38.2966 37.7164 -104.5502 -6.68684 4.82985 -51.4734 1.43157 34.8758 0.0 21.3758 0.0 11.1563 -11.6009 4.56113 0.0 0.0 0.0 0.0 0.0 0.0 102.5005 -7.25252 3.62785 -11.4279 45.8732 68.5551 0.0 144.206 0.0 -49.0987 18.2577 -6.6164 0.0 0.0 0.0 0.0 0.0 0.0 5.23781 -7.37851 4.94942 0.0 6.99689 0.0 10.7483 4.4667997 1.77713 0.0 -32.472603 0.0 7.70605 -9.45529 13.8123 0.0 6.28484 0.0 5.45555 12.54992 -5.97415 0.0 -27.5152 0.0 
  1.3180499267578125 6.6639599609375 9.790869750976562 -160.632 78.842 154.885 2.57821 -15.7233 -2.10582 -1.82259 6.00848 -2.51035 20.6461 39.977 -22.9541 20.2028 -38.2747 37.6111 -104.4628 -6.92395 4.4765 -52.0917 0.532774 34.9694 0.0 22.1928 0.0 11.3896 -11.4825 3.15141 0.0 0.0 0.0 0.0 0.0 0.0 102.4675 -7.18947 3.91047 -11.1825 45.7451 68.2633 0.0 144.238 0.0 -49.1337 18.2779 -6.68615 0.0 0.0 0.0 0.0 0.0 0.0 5.22602 -7.23527 5.16042 0.0 6.89203 0.0 10.7644 4.4376 1.83289 0.0 -32.4668 0.0 7.71402 -9.4511 14.08 0.0 6.3042 0.0 5.45676 12.56695 -5.99389 0.0 -27.6008 0.0 
  1.3244000244140626 6.658109741210938 9.790859985351563 -160.57 78.8208 154.75 2.47374 -15.7273 -2.16156 -1.71521 5.99953 -2.52204 20.9158 40.0774 -23.1744 20.2018 -38.3869 37.8791 -104.3152 -7.15193 4.39089 -52.5553 -0.26264 35.1573 0.0 23.1079 0.0 11.4389 -11.3737 2.21416 0.0 0.0 0.0 0.0 0.0 0.0 102.5564 -7.32087 3.9352 -11.0922 45.6917 68.1712 0.0 144.259 0.0 -49.1387 18.5105 -6.94967 0.0 0.0 0.0 0.0 0.0 0.0 5.20891 -7.19464 5.1597 0.0 6.88844 0.0 10.7924 4.3975 1.91208 0.0 -32.448997 0.0 7.70244 -9.44533 14.1274 0.0 6.32384 0.0 5.48283 12.56058 -5.95906 0.0 -27.5509 0.0 
  1.3301300048828124 6.652559814453125 9.790570068359376 -160.536 78.8248 154.572 2.36261 -15.7555 -2.20084 -1.58624 6.07283 -2.51182 20.9149 40.0685 -23.1596 20.332 -38.3627 37.8535 -104.157 -7.40785 4.43628 -52.9923 -0.781481 35.2699 0.0 23.9993 0.0 11.3647 -11.2869 1.52381 0.0 0.0 0.0 0.0 0.0 0.0 102.6531 -7.44379 3.96975 -11.1235 45.7247 68.0647 0.0 144.249 0.0 -49.215 18.6354 -6.98618 0.0 0.0 0.0 0.0 0.0 0.0 5.1926 -7.13471 5.21019 0.0 6.91834 0.0 10.7995 4.3434 1.98501 0.0 -32.4535 0.0 7.69797 -9.42784 14.2546 0.0 6.35953 0.0 5.49058 12.54055 -5.95832 0.0 -27.5442 0.0 
  1.3361399841308594 6.6452398681640625 9.790430297851563 -160.45 78.8694 154.347 2.29525 -15.7799 -2.18508 -1.5228 6.16591 -2.46392 21.1063 40.111 -23.3393 20.3848 -38.4326 37.9996 -104.0167 -7.53355 4.51812 -53.376 -1.18602 35.2925 0.0 24.7484 0.0 11.202 -11.2446 1.01456 0.0 0.0 0.0 0.0 0.0 0.0 102.7349 -7.61411 4.00133 -11.1569 45.7802 68.0597 0.0 144.287 0.0 -49.3105 18.6379 -7.46012 0.0 0.0 0.0 0.0 0.0 0.0 5.16188 -7.0222 5.31929 0.0 6.94182 0.0 10.8585 4.2882004 2.03527 0.0 -32.468597 0.0 7.68118 -9.36962 14.2727 0.0 6.40973 0.0 5.46237 12.52227 -5.87763 0.0 -27.553001 0.0 
  1.3407899475097655 6.638389892578125 9.790599975585938 -160.169 78.9693 154.0 2.20144 -15.7636 -2.2066 -1.45112 6.30091 -2.4427 21.3221 40.1369 -23.5414 20.4328 -38.4813 38.1763 -103.8583 -7.65604 4.54985 -53.7588 -1.40578 35.3738 0.0 25.2502 0.0 10.9264 -11.1971 0.486578 0.0 0.0 0.0 0.0 0.0 0.0 102.8006 -7.7367 4.01513 -11.2104 45.805 68.0321 0.0 144.328 0.0 -49.3993 18.6722 -7.49766 0.0 0.0 0.0 0.0 0.0 0.0 5.13792 -6.87536 5.26684 0.0 6.98843 0.0 10.8827 4.2551003 2.14424 0.0 -32.4284 0.0 7.67233 -9.26179 14.2516 0.0 6.49048 0.0 5.40983 12.496571 -5.82476 0.0 -27.5651 0.0 
